<?xml version="1.0" encoding="utf-8"?>
<!-- Generator: Adobe Illustrator 19.0.0, SVG Export Plug-In . SVG Version: 6.00 Build 0)  -->
<svg version="1.1" id="Layer_1" xmlns="http://www.w3.org/2000/svg" xmlns:xlink="http://www.w3.org/1999/xlink" x="0px" y="0px"
	 viewBox="-264 356 82 82" style="enable-background:new -264 356 82 82;" xml:space="preserve">
<style type="text/css">
	.st0{fill:none;stroke:#FFFFFF;stroke-width:2.6125;stroke-miterlimit:10;}
	.st1{fill:#FFFFFF;stroke:#FFFFFF;stroke-width:1.8783;stroke-miterlimit:10;}
</style>
<circle class="st0" cx="-223.2" cy="396.8" r="39.2"/>
<g id="dlQzeE_1_">
	<g>
		<path class="st1" d="M-229.6,377.7c4.5-1.4,9.3-1.4,14.2,0.2c1.4-1.6,2.8-3.5,5.5-3.9c1,1.9,1.1,3.9,0.5,5.9
			c-0.2,0.8-0.3,1.5,0.5,2.1c0.2,0.1,0.3,0.3,0.4,0.5c2,4.3,2.4,8.8,0.8,13.3c-1.4,3.9-4.8,5.6-8.6,6.6c-0.4,0.1-0.8,0.2-1.2,0.3
			c-0.2,0-0.3,0.1-0.5,0.1c2,4.6,0.7,9.4,1.2,14.1c-3.9,0-7.6,0-11.4,0c0-1.8,0-3.6,0-5.4c-1.2,0-2.3,0-3.4,0c-2.9-0.1-5-1.6-6.5-4
			c-1.2-2-2.6-4-4-6.2c0.7,0.1,1.8,0,2.5,0.4c1,0.6,2,1.5,2.7,2.5c1.8,2.6,4.2,3.6,7.3,3.2c0.8-0.1,1.4-0.3,1.5-1.4
			c0.1-1.1,0.6-2.1,0.9-3.2c-1.3-0.4-2.8-0.7-4.2-1.3c-4.4-1.8-6.8-5.1-6.9-9.9c-0.1-2.8-0.3-5.7,1.2-8.1c1.1-1.8,1.6-3.3,1-5.3
			c-0.1-0.5,0-1,0-1.6c0.3-2.9,1.1-3.2,3.5-1.5C-231.7,375.8-230.7,376.7-229.6,377.7z"/>
	</g>
</g>
</svg>
