<?xml version="1.0" encoding="utf-8"?>
<!-- Generator: Adobe Illustrator 19.0.0, SVG Export Plug-In . SVG Version: 6.00 Build 0)  -->
<svg version="1.1" id="Layer_1" xmlns="http://www.w3.org/2000/svg" xmlns:xlink="http://www.w3.org/1999/xlink" x="0px" y="0px"
	 viewBox="-264 356 82 82" style="enable-background:new -264 356 82 82;" xml:space="preserve">
<style type="text/css">
	.st0{fill:none;stroke:#FFFFFF;stroke-width:2.6222;stroke-miterlimit:10;}
	.st1{fill:#FFFFFF;stroke:#FFFFFF;stroke-width:1.8853;stroke-miterlimit:10;}
</style>
<circle class="st0" cx="-222.7" cy="396.7" r="39.3"/>
<path class="st1" d="M-230.7,401.2c4.4-4.1,8.5-8,12.6-11.8c-0.1-0.2-0.2-0.4-0.3-0.5c-2.4,1.4-4.8,2.9-7.2,4.3
	c-2,1.2-4.1,2.1-5.8,3.6c-4.4,3.8-8.3,1.1-12.6-0.8c10.5-5.1,21.5-9,33.2-13.4c-0.7,4-1.2,7-1.8,10.1c-1,5.3-2,10.5-3,15.7
	c-0.4,2.2-1.6,3.5-3.8,1.9C-223.2,407.4-226.8,404.4-230.7,401.2z"/>
</svg>
