<?xml version="1.0" encoding="utf-8"?>
<!-- Generator: Adobe Illustrator 19.0.0, SVG Export Plug-In . SVG Version: 6.00 Build 0)  -->
<svg version="1.1" id="Layer_1" xmlns="http://www.w3.org/2000/svg" xmlns:xlink="http://www.w3.org/1999/xlink" x="0px" y="0px"
	 viewBox="-264 356 82 82" style="enable-background:new -264 356 82 82;" xml:space="preserve">
<style type="text/css">
	.st0{fill:none;stroke:#FFFFFF;stroke-width:2.5993;stroke-miterlimit:10;}
	.st1{fill:#FFFFFF;stroke:#FFFFFF;stroke-width:1.8688;stroke-miterlimit:10;}
</style>
<circle class="st0" cx="-223" cy="397.2" r="39"/>
<g>
	<g id="OWeILb_1_">
		<g>
			<g>
				<path class="st1" d="M-221.4,379.7c0.7,0.1,1.4,0.2,2.1,0.3c6.2,1,11.1,4,14.7,9c1.3,1.8,2.3,3.7,3,5.7c0.4,1.1,0.1,2.1-0.5,2.9
					c-2.1,2.8-4.6,5-7.5,7h-0.1c0-0.2,0-0.4,0-0.5c0-4.1,0-8.2,0-12.3c0-1.7-0.7-2.4-2.4-2.4c-0.8,0-1.7,0-2.5,0
					c-1.4,0.1-2.1,0.8-2.1,2.1c0,5.2,0,10.3,0,15.4c0,1.7-0.7,2.5-2.5,2.7c0-0.3,0-0.4,0-0.7c0-4.1,0-8.3,0-12.4
					c0-1.7-0.8-2.5-2.5-2.5c-0.8,0-1.6,0-2.4,0c-1.4,0-2.2,0.8-2.2,2.2c0,4.6,0,9.2,0,13.9c0,1.7-0.2,1.9-1.8,2.4
					c-0.2,0.1-0.4,0.1-0.6,0.1c0-0.3,0-0.4,0-0.6c0-3.6,0-7.2,0-10.8c0-1.8-0.7-2.5-2.5-2.5c-0.8,0-1.7,0-2.5,0
					c-1.3,0-2.1,0.8-2.1,2.1c0,3.8,0,7.5,0,11.3c0,1.4-0.4,1.8-1.8,2c-0.7,0.1-1.3,0.1-2,0.2c-1.1,0.1-2-0.4-2.5-1.4
					c-1.6-2.8-2.6-5.8-2.8-9.1c0-0.2-0.1-0.4-0.1-0.6c0-0.9,0-1.9,0-2.8c0.1-0.1,0.1-0.3,0.1-0.4c0.3-3.1,1.1-6,2.6-8.7
					c3.6-6.3,9-10.1,16.2-11.3c0.8-0.1,1.6-0.3,2.3-0.3S-222.2,379.7-221.4,379.7z"/>
			</g>
		</g>
	</g>
</g>
</svg>
