<?xml version="1.0" encoding="utf-8"?>
<!-- Generator: Adobe Illustrator 19.0.0, SVG Export Plug-In . SVG Version: 6.00 Build 0)  -->
<svg version="1.1" id="Layer_1" xmlns="http://www.w3.org/2000/svg" xmlns:xlink="http://www.w3.org/1999/xlink" x="0px" y="0px"
	 viewBox="-264 356 82 82" style="enable-background:new -264 356 82 82;" xml:space="preserve">
<style type="text/css">
	.st0{fill:none;stroke:#FFFFFF;stroke-width:2.6333;stroke-miterlimit:10;}
	.st1{fill:#FFFFFF;}
	.st2{fill:none;stroke:#FFFFFF;stroke-width:0.7921;stroke-miterlimit:10;}
</style>
<circle class="st0" cx="-223" cy="397" r="39.5"/>
<g>
	<g>
		<path class="st1" d="M-18.2,4537v-1.8h2.2v1.8H-18.2z M-18.2,4546.6v-8.4h2.1v8.4H-18.2z"/>
		<path class="st1" d="M-10.6,4546.6v-6c0-0.3-0.1-0.5-0.2-0.7s-0.3-0.2-0.6-0.2c-0.3,0-0.6,0.1-0.9,0.4s-0.4,0.5-0.4,0.8v5.8h-2.1
			v-8.4h2v0.9c0.3-0.4,0.6-0.7,1-0.9c0.4-0.2,0.8-0.3,1.2-0.3c0.7,0,1.2,0.2,1.6,0.6c0.4,0.4,0.6,1,0.6,1.7v6.2H-10.6z"/>
	</g>
	<g>
		<circle class="st2" cx="-14.1" cy="4542" r="11.9"/>
	</g>
</g>
<path class="st1" d="M-238.5,385.8v-5.4h7.2v5.4H-238.5z M-238.4,414.5v-24.9h7v24.9H-238.4z"/>
<path class="st1" d="M-213.6,414.5v-17.4c0-0.9-0.2-1.6-0.7-2c-0.5-0.5-1.1-0.7-2-0.7c-1.1,0-2.1,0.3-2.9,1
	c-0.8,0.7-1.2,1.5-1.2,2.4v16.7h-7v-24.1h6.7v2.6c0.9-1.1,2-1.9,3.2-2.5c1.2-0.6,2.5-0.9,3.8-0.9c2.2,0,3.9,0.6,5.1,1.8
	c1.2,1.2,1.9,2.9,1.9,5v18H-213.6z"/>
</svg>
