<?xml version="1.0" encoding="utf-8"?>
<!-- Generator: Adobe Illustrator 19.0.0, SVG Export Plug-In . SVG Version: 6.00 Build 0)  -->
<svg version="1.1" id="Layer_1" xmlns="http://www.w3.org/2000/svg" xmlns:xlink="http://www.w3.org/1999/xlink" x="0px" y="0px"
	 viewBox="-264 356 82 82" style="enable-background:new -264 356 82 82;" xml:space="preserve">
<style type="text/css">
	.st0{fill:none;stroke:#FFFFFF;stroke-width:2.6333;stroke-miterlimit:10;}
	.st1{fill:#FFFFFF;stroke:#FFFFFF;stroke-width:1.8933;stroke-miterlimit:10;}
</style>
<circle class="st0" cx="-223" cy="397" r="39.5"/>
<path class="st1" d="M-240.2,383.6c4.4,4.3,8.8,7.2,14.3,7.7c0.4-1.4,0.6-2.8,1.1-4c1.9-4.7,7-6.5,11.3-4.1c1.6,0.9,3.5,1.2,5.5,1.9
	c0,0-0.3,0.8-0.7,1.8c0.8-0.1,1.5-0.2,2.5-0.3c-0.4,0.7-0.5,1.2-0.9,1.4c-2.4,1.5-2.8,3.7-3.2,6.3c-2.1,15-17.4,22.4-31.1,14.8
	c3-1,5.7-1.9,9-2.9c-5.8-3.3-6.6-4.5-4.5-6.1c-1.2-1.2-2.6-2.3-3.4-3.8c-0.6-1-3.2-2.5-0.1-3.8c0.2-0.1-0.4-1.7-0.4-2.6
	C-240.5,388-240.3,386.2-240.2,383.6z"/>
</svg>
