<?xml version="1.0" encoding="utf-8"?>
<!-- Generator: Adobe Illustrator 21.0.0, SVG Export Plug-In . SVG Version: 6.00 Build 0)  -->
<svg version="1.1" id="Layer_1" xmlns="http://www.w3.org/2000/svg" xmlns:xlink="http://www.w3.org/1999/xlink" x="0px" y="0px"
	 viewBox="0 0 658 141" style="enable-background:new 0 0 658 141;" xml:space="preserve">
<style type="text/css">
	.st0{fill:#FFFFFF;}
	.st1{fill:url(#SVGID_1_);}
	.st2{fill:none;stroke:#0B1119;stroke-width:4.0034;stroke-miterlimit:10;}
	.st3{fill:#0B1119;}
	.st4{fill:none;}
</style>
<path class="st0" d="M382.5,100.1L372,44.5c-0.3-1.3-0.6-1.6-1.8-1.8l-0.8-0.2c-0.4-0.1-0.4-0.3-0.4-0.7v-0.2c0-0.4,0.2-0.5,0.5-0.5
	h13c0.4,0,0.5,0.2,0.5,0.5v0.2c0,0.4-0.1,0.6-0.3,0.7l-0.5,0.2c-0.5,0.2-0.8,0.4-0.8,0.9c0,0.2,0,0.3,0.1,0.8l5.3,34.1h0.2l3.6-18.9
	l-2.8-15c-0.3-1.4-0.5-1.6-1.3-1.9l-0.4-0.2c-0.3-0.1-0.3-0.3-0.3-0.7v-0.2c0-0.4,0.2-0.5,0.5-0.5H399c0.4,0,0.5,0.2,0.5,0.5v0.2
	c0,0.4-0.1,0.6-0.4,0.7l-0.8,0.2c-0.9,0.2-1.2,0.5-1.2,1c0,0.2,0,0.3,0.1,0.8l5.3,34h0.2l6.3-33.3c0.1-0.4,0.1-0.6,0.1-0.7
	c0-0.8-0.4-1.4-1.3-1.7l-0.9-0.3c-0.3-0.1-0.3-0.3-0.3-0.7v-0.2c0-0.4,0.2-0.5,0.5-0.5h6.6c0.4,0,0.5,0.2,0.5,0.5v0.2
	c0,0.4-0.1,0.6-0.4,0.7l-0.9,0.3c-1.1,0.4-1.5,0.7-1.8,2.6l-10.4,54.7c-0.1,0.6-0.5,1-0.9,1h-0.6c-0.4,0-0.8-0.3-0.9-1l-6.6-34.7
	h-0.2l-6.6,34.7c-0.1,0.6-0.5,1-0.9,1h-0.6C383,101.1,382.6,100.7,382.5,100.1z"/>
<path class="st0" d="M403.4,100.1v-0.2c0-0.4,0.1-0.6,0.3-0.7l0.9-0.3c1.1-0.3,1.6-0.9,1.9-2.7l11.6-54.6c0.1-0.6,0.5-1,0.9-1h0.6
	c0.4,0,0.8,0.3,0.9,1l11.7,55.6c0.3,1.3,0.6,1.6,1.8,1.8l0.8,0.2c0.4,0.1,0.4,0.3,0.4,0.7v0.2c0,0.4-0.2,0.5-0.5,0.5h-13.8
	c-0.3,0-0.5-0.2-0.5-0.5v-0.2c0-0.4,0.1-0.6,0.4-0.7l0.8-0.2c0.9-0.2,1.2-0.4,1.2-1c0-0.2,0-0.3-0.1-0.7l-2.2-11.9h-9.5l-2.4,11.2
	c-0.1,0.4-0.1,0.5-0.1,0.8c0,0.7,0.5,1.2,1.4,1.5l0.9,0.3c0.3,0.1,0.4,0.3,0.4,0.7v0.2c0,0.4-0.2,0.5-0.5,0.5h-6.7
	C403.5,100.6,403.4,100.5,403.4,100.1z M420.1,83.5L416,61.8h-0.1l-4.6,21.7H420.1z"/>
<path class="st0" d="M433.5,100.1v-0.2c0-0.4,0.1-0.6,0.4-0.7l0.8-0.2c1.2-0.3,1.4-0.5,1.4-1.5V44.2c0-1-0.2-1.2-1.4-1.5l-0.8-0.2
	c-0.4-0.1-0.4-0.3-0.4-0.7v-0.2c0-0.4,0.2-0.5,0.5-0.5h15c0.4,0,0.5,0.2,0.5,0.5v0.2c0,0.4-0.1,0.6-0.4,0.7l-1.5,0.4
	c-1.7,0.3-2,0.5-2,1.7v52.7c0,1,0.5,1.4,1.7,1.4h0.2c5.8,0,7.3-1.8,8.9-7.9l1.6-5.7c0.1-0.3,0.3-0.4,0.6-0.4h0.3
	c0.4,0,0.6,0.2,0.6,0.5v14.7c0,0.5-0.3,0.8-0.8,0.8H434C433.6,100.6,433.5,100.5,433.5,100.1z"/>
<path class="st0" d="M458.5,100.1v-0.2c0-0.4,0.1-0.6,0.4-0.7l0.8-0.2c1.2-0.3,1.4-0.5,1.4-1.5V44.2c0-1-0.2-1.2-1.4-1.5l-0.8-0.2
	c-0.4-0.1-0.4-0.3-0.4-0.7v-0.2c0-0.4,0.2-0.5,0.5-0.5h15c0.4,0,0.5,0.2,0.5,0.5v0.2c0,0.4-0.1,0.6-0.4,0.7l-1.5,0.4
	c-1.7,0.3-2,0.5-2,1.7v52.7c0,1,0.5,1.4,1.7,1.4h0.2c5.8,0,7.3-1.8,8.9-7.9l1.6-5.7c0.1-0.3,0.3-0.4,0.6-0.4h0.3
	c0.4,0,0.6,0.2,0.6,0.5v14.7c0,0.5-0.3,0.8-0.8,0.8H459C458.7,100.6,458.5,100.5,458.5,100.1z"/>
<path class="st0" d="M496.4,97.9c-0.5-0.6-0.7-0.8-1-0.8c-0.4,0-0.5,0.3-0.9,1.7l-0.5,2c-0.1,0.4-0.3,0.4-0.6,0.4h-0.2
	c-0.4,0-0.6-0.2-0.6-0.5V81.3c0-0.4,0.2-0.5,0.6-0.5h0.3c0.4,0,0.5,0.1,0.6,0.4l1.1,5.4c2.1,10.9,5.3,12.8,9.2,12.8
	c3.8,0,5.6-2.5,5.6-7.6c0-2.3-0.7-4.4-3.1-8.1l-9.3-14.9c-3.8-6-5-10.1-5-15.5c0-8.7,4.6-13,10.6-13c2.7,0,4.5,1.1,5.7,2
	c1.6,1.2,1.8,1.4,2.2,1.4c0.4,0,0.5-0.3,0.6-0.7l0.5-2c0.1-0.4,0.3-0.4,0.6-0.4h0.2c0.4,0,0.6,0.2,0.6,0.5v16.8
	c0,0.4-0.2,0.5-0.6,0.5h-0.3c-0.4,0-0.5-0.1-0.6-0.4l-1.1-5c-1.5-6.4-3.2-10.6-7.6-10.6c-3.2,0-4.8,2.2-4.8,6c0,2.5,0.8,4.6,3.1,8.3
	l9.3,14.9c3.7,6,5,10,5,15.5c0,10.3-4.6,14.4-11.5,14.4C500.9,101.5,498.7,100.6,496.4,97.9z"/>
<path class="st0" d="M520.4,100.1v-0.2c0-0.4,0.1-0.6,0.4-0.7l1.5-0.3c1.7-0.4,2-0.5,2-1.7V43.1h-0.6c-3.5,0-4.6,1.5-6.1,7.9
	l-1.4,5.7c-0.1,0.3-0.3,0.4-0.6,0.4h-0.3c-0.4,0-0.6-0.2-0.6-0.5V41.9c0-0.5,0.3-0.8,0.8-0.8h27.1c0.5,0,0.8,0.3,0.8,0.8v14.7
	c0,0.4-0.2,0.5-0.6,0.5h-0.3c-0.3,0-0.5-0.1-0.6-0.4l-1.4-5.7c-1.6-6.4-2.6-7.9-6.1-7.9h-0.6v54.1c0,1.1,0.4,1.3,2,1.7l1.5,0.3
	c0.4,0.1,0.4,0.3,0.4,0.7v0.2c0,0.4-0.2,0.5-0.5,0.5h-16.3C520.6,100.6,520.4,100.5,520.4,100.1z"/>
<path class="st0" d="M542.5,100.1v-0.2c0-0.4,0.1-0.6,0.4-0.7l0.8-0.2c1.2-0.3,1.4-0.5,1.4-1.5V44.2c0-1-0.2-1.2-1.4-1.5l-0.8-0.2
	c-0.4-0.1-0.4-0.3-0.4-0.7v-0.2c0-0.4,0.2-0.5,0.5-0.5h14.2c8.9,0,13,4.5,13,13.4v2.5c0,5.6-2.6,9.9-8.2,11.5v0.2
	c4.6,1.8,7,5.8,7.4,11.5l1.3,16.5c0.2,1.8,0.8,2.2,1.9,2.5l0.8,0.2c0.4,0.1,0.4,0.3,0.4,0.7v0.2c0,0.4-0.2,0.5-0.5,0.5h-10.5
	c-0.5,0-0.8-0.4-0.9-0.7c-0.3-1.3-0.6-2.5-0.8-5.5l-1-14.7c-0.5-7.6-1.1-10.2-5.4-10.2h-0.3v28.1c0,1,0.2,1.2,1.4,1.5l0.8,0.2
	c0.4,0.1,0.4,0.3,0.4,0.7v0.2c0,0.4-0.2,0.5-0.5,0.5h-13.7C542.7,100.6,542.5,100.5,542.5,100.1z M556,67.5c3.4,0,4.8-1.1,4.8-4.4
	V47.3c0-3.1-1.4-4.2-4.8-4.2h-1.4v24.3H556z"/>
<path class="st0" d="M572.3,100.1v-0.2c0-0.4,0.1-0.6,0.4-0.7l0.8-0.2c1.2-0.3,1.4-0.5,1.4-1.5V44.2c0-1-0.2-1.2-1.4-1.5l-0.8-0.2
	c-0.4-0.1-0.4-0.3-0.4-0.7v-0.2c0-0.4,0.2-0.5,0.5-0.5h24.6c0.5,0,0.8,0.3,0.8,0.8v13c0,0.3-0.2,0.5-0.6,0.5h-0.3
	c-0.4,0-0.5-0.1-0.6-0.4l-1.6-5.7c-1.2-4.6-2.7-6.1-8-6.1h-2.8v23.2h1.1c3.9,0,5.4-0.6,6.1-3.2l0.8-3.1c0.1-0.3,0.3-0.4,0.6-0.4h0.3
	c0.4,0,0.6,0.2,0.6,0.5v14.4c0,0.3-0.2,0.5-0.6,0.5H593c-0.4,0-0.5-0.1-0.6-0.4l-0.8-3.1c-0.7-2.6-2.2-3.2-6.1-3.2h-1.1v28.9
	c0,1,0.5,1.4,1.7,1.4h1.1c5.8,0,7.4-1.8,8.9-7l1.6-5.7c0.1-0.4,0.3-0.4,0.6-0.4h0.3c0.4,0,0.6,0.2,0.6,0.5v13.8
	c0,0.5-0.3,0.8-0.8,0.8h-25.5C572.5,100.6,572.3,100.5,572.3,100.1z"/>
<path class="st0" d="M598.7,100.1v-0.2c0-0.4,0.1-0.6,0.4-0.7l0.8-0.2c1.2-0.3,1.4-0.5,1.4-1.5V44.2c0-1-0.2-1.2-1.4-1.5l-0.8-0.2
	c-0.4-0.1-0.4-0.3-0.4-0.7v-0.2c0-0.4,0.2-0.5,0.5-0.5h24.6c0.5,0,0.8,0.3,0.8,0.8v13c0,0.3-0.2,0.5-0.6,0.5h-0.3
	c-0.4,0-0.5-0.1-0.6-0.4l-1.6-5.7c-1.2-4.6-2.7-6.1-8-6.1h-2.8v23.2h1.1c3.9,0,5.4-0.6,6.1-3.2l0.8-3.1c0.1-0.3,0.3-0.4,0.6-0.4h0.3
	c0.4,0,0.6,0.2,0.6,0.5v14.4c0,0.3-0.2,0.5-0.6,0.5h-0.3c-0.4,0-0.5-0.1-0.6-0.4l-0.8-3.1c-0.7-2.6-2.2-3.2-6.1-3.2h-1.1v28.9
	c0,1,0.5,1.4,1.7,1.4h1.1c5.8,0,7.4-1.8,8.9-7l1.6-5.7c0.1-0.4,0.3-0.4,0.6-0.4h0.3c0.4,0,0.6,0.2,0.6,0.5v13.8
	c0,0.5-0.3,0.8-0.8,0.8h-25.5C598.9,100.6,598.7,100.5,598.7,100.1z"/>
<path class="st0" d="M631,100.1v-0.2c0-0.4,0.1-0.6,0.4-0.7l1.5-0.3c1.7-0.4,2-0.5,2-1.7V43.1h-0.6c-3.5,0-4.6,1.5-6.1,7.9l-1.4,5.7
	c-0.1,0.3-0.3,0.4-0.6,0.4h-0.3c-0.4,0-0.6-0.2-0.6-0.5V41.9c0-0.5,0.3-0.8,0.8-0.8h27.1c0.5,0,0.8,0.3,0.8,0.8v14.7
	c0,0.4-0.2,0.5-0.6,0.5h-0.3c-0.3,0-0.5-0.1-0.6-0.4l-1.4-5.7c-1.6-6.4-2.6-7.9-6.1-7.9h-0.6v54.1c0,1.1,0.4,1.3,2,1.7l1.5,0.3
	c0.4,0.1,0.4,0.3,0.4,0.7v0.2c0,0.4-0.2,0.5-0.5,0.5h-16.3C631.2,100.6,631,100.5,631,100.1z"/>
<g>
	<path class="st0" d="M16.2,99.8L5.7,44.4c-0.3-1.3-0.6-1.6-1.7-1.8l-0.8-0.2c-0.3-0.1-0.4-0.3-0.4-0.7v-0.2C2.8,41.2,3,41,3.3,41
		h12.9c0.3,0,0.5,0.2,0.5,0.5v0.2c0,0.4-0.1,0.6-0.3,0.7l-0.5,0.2c-0.5,0.2-0.8,0.4-0.8,0.9c0,0.2,0,0.3,0.1,0.8l5.2,34h0.2
		l3.6-18.8l-2.8-14.9c-0.3-1.4-0.5-1.6-1.3-1.9l-0.4-0.2c-0.3-0.1-0.3-0.3-0.3-0.7v-0.2c0-0.3,0.2-0.5,0.5-0.5h12.8
		c0.3,0,0.5,0.2,0.5,0.5v0.2c0,0.4-0.1,0.6-0.4,0.7l-0.8,0.2c-0.9,0.2-1.2,0.5-1.2,1c0,0.2,0,0.3,0.1,0.8L36,78.2h0.2L42.5,45
		c0.1-0.4,0.1-0.6,0.1-0.7c0-0.8-0.3-1.4-1.3-1.7l-0.9-0.3c-0.3-0.1-0.3-0.3-0.3-0.7v-0.2c0-0.3,0.2-0.5,0.5-0.5h6.5
		c0.3,0,0.5,0.2,0.5,0.5v0.2c0,0.4-0.1,0.6-0.3,0.7l-0.9,0.3c-1,0.3-1.5,0.7-1.8,2.6L34.2,99.8c-0.1,0.6-0.5,1-0.9,1h-0.6
		c-0.4,0-0.8-0.3-0.9-1l-6.5-34.6h-0.2l-6.5,34.6c-0.1,0.6-0.5,1-0.9,1h-0.6C16.6,100.7,16.3,100.4,16.2,99.8z"/>
	<path class="st0" d="M44.6,86.1V55.2c0-9.4,4.9-15.1,12.8-15.1c7.9,0,12.8,5.7,12.8,15.1v30.9c0,9.4-4.9,15.1-12.8,15.1
		C49.5,101.2,44.6,95.5,44.6,86.1z M60.9,94.5V46.8c0-3.4-1-4.6-3.4-4.6c-2.4,0-3.4,1.2-3.4,4.6v47.8c0,3.4,1,4.6,3.4,4.6
		C59.9,99.2,60.9,97.9,60.9,94.5z"/>
	<path class="st0" d="M71.8,99.8v-0.2c0-0.4,0.1-0.6,0.4-0.7l0.8-0.2c1.2-0.3,1.4-0.5,1.4-1.5V44.1c0-1-0.2-1.2-1.4-1.5l-0.8-0.2
		c-0.3-0.1-0.4-0.3-0.4-0.7v-0.2c0-0.3,0.2-0.5,0.5-0.5h14.9c0.3,0,0.5,0.2,0.5,0.5v0.2c0,0.4-0.1,0.6-0.4,0.7l-1.5,0.3
		c-1.7,0.3-2,0.5-2,1.7v52.5c0,1,0.5,1.4,1.7,1.4h0.2c5.8,0,7.2-1.8,8.9-7.8l1.6-5.7c0.1-0.3,0.3-0.4,0.6-0.4H97
		c0.4,0,0.6,0.2,0.6,0.5v14.6c0,0.5-0.3,0.8-0.8,0.8H72.4C72,100.3,71.8,100.1,71.8,99.8z"/>
	<path class="st0" d="M105.8,99.8L94.9,44.4c-0.3-1.3-0.6-1.6-1.7-1.8l-0.8-0.2c-0.3-0.1-0.4-0.3-0.4-0.7v-0.2
		c0-0.3,0.2-0.5,0.5-0.5h13.8c0.3,0,0.5,0.2,0.5,0.5v0.2c0,0.4-0.1,0.6-0.4,0.7l-0.8,0.2c-0.9,0.2-1.2,0.4-1.2,0.9
		c0,0.2,0,0.3,0.1,0.8l5.8,33.9h0.2l6.5-33.1c0.1-0.4,0.1-0.6,0.1-0.8c0-0.8-0.5-1.3-1.4-1.6l-0.9-0.3c-0.3-0.1-0.3-0.3-0.3-0.7
		v-0.2c0-0.3,0.2-0.5,0.5-0.5h6.6c0.3,0,0.5,0.2,0.5,0.5v0.2c0,0.4-0.1,0.6-0.3,0.7l-0.9,0.3c-1.1,0.3-1.6,0.9-1.9,2.7l-10.6,54.4
		c-0.1,0.6-0.5,1-0.9,1h-0.6C106.2,100.7,105.8,100.4,105.8,99.8z"/>
	<path class="st0" d="M121.1,99.8v-0.2c0-0.4,0.1-0.6,0.4-0.7l0.8-0.2c1.2-0.3,1.4-0.5,1.4-1.5V44.1c0-1-0.2-1.2-1.4-1.5l-0.8-0.2
		c-0.3-0.1-0.4-0.3-0.4-0.7v-0.2c0-0.3,0.2-0.5,0.5-0.5h24.5c0.5,0,0.8,0.3,0.8,0.8v12.9c0,0.3-0.2,0.5-0.6,0.5H146
		c-0.3,0-0.5-0.1-0.6-0.4l-1.6-5.7c-1.2-4.5-2.7-6.1-7.9-6.1h-2.8v23.1h1.1c3.9,0,5.4-0.6,6.1-3.2l0.8-3.1c0.1-0.3,0.3-0.4,0.6-0.4
		h0.3c0.4,0,0.6,0.2,0.6,0.5v14.4c0,0.3-0.2,0.5-0.6,0.5h-0.3c-0.3,0-0.5-0.1-0.6-0.4l-0.8-3.1c-0.7-2.6-2.2-3.2-6.1-3.2h-1.1v28.8
		c0,1,0.5,1.4,1.7,1.4h1c5.8,0,7.4-1.7,8.9-7l1.6-5.7c0.1-0.3,0.3-0.4,0.6-0.4h0.3c0.4,0,0.6,0.2,0.6,0.5v13.8
		c0,0.5-0.3,0.8-0.8,0.8h-25.4C121.3,100.3,121.1,100.1,121.1,99.8z"/>
	<path class="st0" d="M152.7,97.6c-0.5-0.6-0.7-0.8-1-0.8c-0.3,0-0.5,0.3-0.9,1.7l-0.5,2c-0.1,0.3-0.3,0.4-0.6,0.4h-0.2
		c-0.4,0-0.6-0.2-0.6-0.5V81c0-0.3,0.2-0.5,0.6-0.5h0.3c0.3,0,0.5,0.1,0.6,0.4l1,5.4c2.1,10.8,5.2,12.7,9.2,12.7
		c3.7,0,5.6-2.4,5.6-7.6c0-2.3-0.7-4.4-3.1-8.1l-9.2-14.8c-3.7-6-5-10-5-15.4c0-8.6,4.6-13,10.6-13c2.7,0,4.4,1,5.7,2
		c1.6,1.2,1.8,1.4,2.2,1.4c0.3,0,0.5-0.3,0.6-0.7l0.5-2c0.1-0.3,0.3-0.4,0.6-0.4h0.2c0.4,0,0.6,0.2,0.6,0.5v16.7
		c0,0.3-0.2,0.5-0.6,0.5H169c-0.3,0-0.5-0.1-0.6-0.4l-1.1-5c-1.5-6.4-3.1-10.6-7.6-10.6c-3.1,0-4.8,2.2-4.8,6c0,2.4,0.8,4.6,3.1,8.3
		l9.2,14.8c3.7,5.9,5,9.9,5,15.4c0,10.3-4.6,14.4-11.4,14.4C157.1,101.2,155,100.2,152.7,97.6z"/>
</g>
<g>
	<g>
		<path class="st0" d="M190.4,58.4L190.4,58.4c0-0.2,0-0.2,0.1-0.3l0.2-0.1c0.4-0.1,0.4-0.2,0.4-0.5l-0.2-16c0-0.3-0.1-0.4-0.4-0.4
			l-0.2,0c-0.1,0-0.1-0.1-0.1-0.2l0-0.1c0-0.1,0.1-0.2,0.2-0.2l7.4-0.1c0.2,0,0.2,0.1,0.2,0.2l0,3.9c0,0.1-0.1,0.2-0.2,0.2l-0.1,0
			c-0.1,0-0.2,0-0.2-0.1l-0.5-1.7c-0.4-1.4-0.8-1.8-2.4-1.8l-0.8,0l0.1,7.5l0.3,0c1.2,0,1.6-0.2,1.8-1l0.2-0.9
			c0-0.1,0.1-0.1,0.2-0.1l0.1,0c0.1,0,0.2,0.1,0.2,0.2l0.1,4.3c0,0.1-0.1,0.2-0.2,0.2l-0.1,0c-0.1,0-0.2,0-0.2-0.1l-0.2-0.9
			c-0.2-0.8-0.7-1-1.9-1l-0.3,0l0.1,8.1c0,0.3,0.1,0.4,0.6,0.5l0.4,0.1c0.1,0,0.1,0.1,0.1,0.2l0,0.1c0,0.1-0.1,0.2-0.2,0.2l-4.5,0.1
			C190.4,58.6,190.4,58.5,190.4,58.4z"/>
	</g>
	<g>
		<path class="st0" d="M181.8,54.2l-0.1-9.3c0-2.8,1.4-4.6,3.8-4.6c2.4,0,3.9,1.7,3.9,4.5l0.1,9.3c0,2.8-1.4,4.6-3.8,4.6
			C183.3,58.7,181.8,57,181.8,54.2z M186.7,56.7l-0.2-14.4c0-1-0.3-1.4-1-1.4c-0.7,0-1,0.4-1,1.4l0.2,14.4c0,1,0.3,1.4,1,1.4
			C186.5,58.1,186.7,57.7,186.7,56.7z"/>
	</g>
</g>
<g>
	
		<linearGradient id="SVGID_1_" gradientUnits="userSpaceOnUse" x1="3785.3293" y1="1628.7567" x2="3785.3293" y2="1495.9827" gradientTransform="matrix(1 0 0 1 -3503.7466 -1491.9185)">
		<stop  offset="0" style="stop-color:#CC8A6D"/>
		<stop  offset="9.602536e-02" style="stop-color:#D49C83"/>
		<stop  offset="0.2963" style="stop-color:#E8C9BC"/>
		<stop  offset="0.5107" style="stop-color:#FFFFFF"/>
		<stop  offset="0.6234" style="stop-color:#DEDEDD"/>
		<stop  offset="0.793" style="stop-color:#B3B1B0"/>
		<stop  offset="0.9242" style="stop-color:#989593"/>
		<stop  offset="1" style="stop-color:#8E8B89"/>
	</linearGradient>
	<circle class="st1" cx="281.6" cy="70.5" r="66.4"/>
	
		<ellipse transform="matrix(0.9875 -0.1578 0.1578 0.9875 -7.6258 45.2944)" class="st2" cx="281.5" cy="70.7" rx="66.4" ry="66.4"/>
	<g>
		<path class="st3" d="M331.2,86.9c0.1-0.4,0.2-0.9,0.4-1.3c-0.2,0.3-0.3,0.6-0.5,0.9C331.1,86.5,331.2,86.7,331.2,86.9z"/>
		<path class="st3" d="M331.7,85.5c0.4-0.7,0.7-1.5,1.1-2.2c-0.4,0.8-0.8,1.6-1.1,2.3C331.6,85.5,331.7,85.5,331.7,85.5z"/>
		<path class="st3" d="M278,47.2c0.8-0.6,2.3,1.9,3.3,0.3c0.3-0.5,1.1,0.3,1.6,0.2c0.6-0.1,1.1-0.3,1.6-0.3c-0.1-1-0.6-2-1.3-2.7
			c-3.1-2.8-9,1.4-7.4,5.1C276.6,48.4,276.4,48.4,278,47.2z"/>
	</g>
	<g>
		<path class="st3" d="M235.4,76c0,0,17.7,12.9,24.4,15.5c6.6,2.7,12.4,2.7,12.4,2.7s-2,1.3-2.2,3.1c-0.4,3.1,1.3,5.8,1.3,5.8
			s-16,0.9-24.4-2.2c-6.3-2.3-12.9-6.6-13.3-14.2C233.3,81.6,235.4,76,235.4,76z"/>
		<path class="st3" d="M271.7,94.2c0,0-1.3,1.3-1.3,2.7c0,0.9-0.4,2.2,1.3,4.9c1.2,1.8,4.4,1.3,4.4,1.3s-4.4,10.2,2.2,13.7
			c6.6,3.5,15.1,1.3,17.3,0c2.2-1.3,1.8-6.2,1.8-6.2l-6.6-0.9c0,0-4,4-7.5,2.2c-3.7-1.8-5.1-6.8-4.4-8.9c1.3-4-1.8-7.1-2.7-8
			S271.7,94.2,271.7,94.2z"/>
	</g>
	<g>
		<path class="st4" d="M309.4,101.9c0,0,0-0.1,0-0.1C309.4,101.8,309.4,101.8,309.4,101.9z"/>
		<path class="st4" d="M332.7,83.2c0,0,0,0.1-0.1,0.1C332.7,83.2,332.7,83.2,332.7,83.2z"/>
		<path class="st4" d="M331.7,85.4c0.1-0.3,0.4-0.8,0.6-1.2C332.1,84.6,331.9,85,331.7,85.4z"/>
		<path class="st4" d="M331.3,86.5c-0.1,0.2-0.1,0.3-0.1,0.4C331.2,86.8,331.3,86.7,331.3,86.5z"/>
		<path class="st4" d="M296,86.6c-1.6,0.6-1,1.7-2.6,1.1c-0.2-0.1-0.3,0.1-0.2,0.2c1.9,1.8,3.8,4.8,3.4,2.9
			c-0.4-1.8,4.2-1.7,2.6-4.3C298.6,85.6,297.6,86,296,86.6z"/>
		<path class="st3" d="M309.7,103.6c-0.1-0.8-0.3-1.5-0.3-1.7C309.2,102.6,309.4,103.1,309.7,103.6z"/>
		<path class="st3" d="M331.6,85.6c0-0.1,0.1-0.1,0.1-0.2C331.6,85.5,331.6,85.6,331.6,85.6z"/>
		<path class="st3" d="M309.9,105.6C309.9,105.3,309.7,105.3,309.9,105.6L309.9,105.6z"/>
		<path class="st3" d="M332.3,84.1c0-0.1,0.1-0.2,0.1-0.2c0.1-0.3,0.2-0.4,0.2-0.6C332.5,83.5,332.4,83.8,332.3,84.1z"/>
		<path class="st3" d="M227.4,57.8c2.3-2.1,4.3-4.3,7.6-5.1c-0.3,0.6-0.4,0.9-0.5,1.1c-1.7,4.1-3.7,8.1-4.9,12.4
			c-3.8,13.5-1.5,26.1,6.5,37.6c5.6,8.1,12.8,14.3,21.9,18.2c2.7,1.2,5.5,2.3,8.3,3.4c0.2-0.4,0.1-0.3,0.4-0.7
			c-7.1-4.4-13-9.8-15.5-18.3c-0.4,0-0.4,0-0.8,0c-0.7,1.8-1.3,3.6-2,5.6c0,0.1-0.2,0.1-0.3,0c-9.9-11-19.2-31.3-5.1-44.1
			c0.1-0.1,0-0.3-0.1-0.2c-2.5,0.3-4.3,1.7-6.4,3.2c-0.1,0.1-0.3,0-0.2-0.1c1-8,4.4-14.1,10.7-18.7c0.5-0.4-3.1,1.8-2.8,1.2
			c1.2-2.3,1.9-5.9,3.4-8c2.9-4.2,2.9-10.8,4.5-15.9c0-0.1,0.2-0.1,0.3,0c0.8,1.9,4.6,11.3,8.1,13.3c0.1,0,0.2,0,0.2-0.1
			c0.8-2.2,1.7-11.6,2.4-14c0-0.1,0.2-0.1,0.3-0.1c2.8,3.3,7.6,9.7,7.6,13.6c0,0.1,0.1,0.2,0.2,0.1c3.2-2,5.9-2.3,9.9-2
			c3.8,0.3,6.6,2.1,7.1,2.4c0,0,0.1,0,0.1,0c1.2-0.4,17.2-6,22.6-5.9c0.1,0,0.1,0.1,0.1,0.1c1.6,7.8,0.1,9.4-1.9,12.2
			c-2.1,2.9-4.2,2.6-8.6,5.1c-1,0.5-2,2.7-2.2,3.2c0,0.1-0.1,0.1-0.2,0.1l-3.8-0.7c-0.1,0-0.1,0-0.2,0.1l-1.1,2.9
			c0,0.1-0.1,0.1-0.2,0.1c-0.6-0.3-3-1.4-3.6-1.6c-0.4-0.1-1.2,2.2-1.3,2.8c0,0.1-0.1,0.1-0.2,0.1c-0.5-0.1-2.8-0.3-3.5-0.1
			c-8.7,2.4-6,3.9-6,4.4c0,0.6,1,4.9,5.9,2c1.7-1,5.1-1.8,7.3-2.3c6.4-1.5,10,1.3,9.5,1.6c-3.5,2.5-2.2,0.7-4.1,4.4
			c0,0.1-0.1,0.1-0.2,0.1c-6.7-4-8.5,2.2-13.7,3.8c-4.4,1.4-7.3,2.9-9.1,8.1c-0.3,1-1.4,1.5-1.6,2.5c-0.3,1.7-0.7,5.5,1.9,5.9
			c3.3,0.4,8.8-0.1,13.1,0c2.1,0.1,1.1,1.4,2.4,3.1c0,0,0,0,0,0c2.4,5.1,5.9,5.2,10.5,4.7c0.1,0,0.2,0.1,0.2,0.2
			c-0.4,4.7,5.8,5.5,9.2,8.2c0.1,0.1,0.2,0,0.2-0.1c0.5-0.9,0.4-1.6,0.4-2c-0.2-0.4-0.1-0.3,0,0c0,0.1,0.1,0.2,0.1,0.3
			c0,0.1-0.2-1.1-0.4-2.3c-0.3-0.5-0.4-1-0.3-1.7c0-0.1,0-0.1,0-0.1c0,0,0,0.1,0,0.1c0,0.3,0.1,1,0.3,1.7c1.8,2.7,9.9,2.5,12.1,4.2
			c0.1,0.1,0.2,0,0.2,0c2.2-2.9-0.1-3,2.1-6c1.2-1.6,0.5-0.9,1.6-2.5c0.3-0.5,0.8-1.4,1.3-1.8c2.3-1.6,1.5,0.7,5.1-4
			c3.4-4.5,3.1-9.8,3.8-13.7c0-0.1-0.1-0.2-0.2-0.1c-1,0.9-2.1,2.2-2.9,3.6c0,0,0,0,0,0c-0.3,0.6-0.5,1.1-0.8,1.7
			c-0.3,0.6-0.5,1.2-0.6,1.6c0,0.1-0.1,0.2-0.1,0.4c0,0,0-0.2,0.1-0.4c0.1-0.3,0.2-0.6,0.3-1c0,0.1,0,0,0.1-0.2
			c0.2-0.4,0.4-0.8,0.6-1.2c0.2-0.3,0.3-0.6,0.4-0.8c0-0.1,0-0.1,0.1-0.1c0-0.1,0,0-0.1,0.1c-0.1,0.1-0.1,0.3-0.2,0.6
			c0.1-0.2,0.2-0.4,0.4-0.7c0,0,0,0,0,0c5.1-11.4,5.6-23.3,0.9-35c-5.8-14.4-16.5-24.5-31.1-30.1c-2.2-0.8-4.4-1.5-6.6-2.2
			c-0.1,0-0.3,0.1-0.2,0.2c1.7,2.3,3.8,4.2,4.6,7.3c0,0.1-0.1,0.2-0.2,0.2c-0.7-0.3-1.1-0.6-1.6-0.8c-16.9-8.4-33.4-8.9-49.4,2.2
			c-11.5,8-18.2,19.2-22,32.6C227.1,57.8,227.3,57.9,227.4,57.8z M296.7,90.9c0.4,1.8-1.5-1.2-3.4-2.9c-0.1-0.1,0-0.3,0.2-0.2
			c1.6,0.6,1-0.5,2.6-1.1c1.5-0.6,2.6-1,3.2-0.1C300.9,89.2,296.3,89.1,296.7,90.9z M314.8,48.3c0,0,0.3,0.3,0.9,0
			c0.9-0.4,0.9-1.8,0.9-1.8l2.7,4.4l3.1-4l-2.2-5.8L317,43c0,0,0.1-0.9-0.4-1.8c-0.9-1.3-1.3-0.9-1.3-0.9v-0.9v-0.9
			c0,0,3.1-0.9,8.9,4.9s12.7,21.5,12.7,21.5v7.5c0,0-4.6-9.1-13.2-15.7c-5.8-4.4-9.3-4.9-9.3-4.9L314.8,48.3z"/>
		<path class="st3" d="M331.6,85.6c-0.1,0.3-0.2,0.7-0.3,1c0.1-0.4,0.4-1,0.6-1.6c-0.1,0.2-0.2,0.4-0.3,0.5
			C331.7,85.5,331.6,85.5,331.6,85.6z"/>
		<path class="st3" d="M331.7,85.4c0,0.1-0.1,0.1-0.1,0.2C331.6,85.5,331.7,85.5,331.7,85.4c0.1-0.1,0.2-0.3,0.2-0.5
			c0.2-0.4,0.3-0.7,0.4-1c0,0.1-0.1,0.2-0.1,0.2C332.1,84.6,331.8,85.1,331.7,85.4z"/>
	</g>
</g>
</svg>
